<?xml version="1.0" encoding="UTF-8"?>
<svg width="31px" height="35px" viewBox="0 0 31 35" version="1.1" xmlns="http://www.w3.org/2000/svg" xmlns:xlink="http://www.w3.org/1999/xlink">
    <!-- Generator: Sketch 51 (57462) - http://www.bohemiancoding.com/sketch -->
    <title>Shape</title>
    <desc>Created with Sketch.</desc>
    <defs></defs>
    <g id="Page-1" stroke="none" stroke-width="1" fill="none" fill-rule="evenodd">
        <g id="Recipe-Carousel" transform="translate(-576.000000, -622.000000)">
            <rect fill="#FAFAFA" x="0" y="0" width="1440" height="1024"></rect>
            <g id="Group-2" transform="translate(260.000000, 123.000000)" fill="#246EB9" fill-rule="nonzero">
                <g id="Start-OVer" transform="translate(303.000000, 490.000000)">
                    <g id="Group-3" transform="translate(27.965926, 27.258819) rotate(105.000000) translate(-27.965926, -27.258819) translate(8.965926, 9.258819)">
                        <g id="np_restart_738076_000000" transform="translate(18.774976, 18.030100) scale(1, -1) rotate(-173.000000) translate(-18.774976, -18.030100) translate(1.774976, 2.530100)">
                            <path d="M28.2580214,29.1136523 L27.2073118,29.3588222 C24.700578,29.9508897 23.1778624,30.3094947 22.1089643,30.1827298 C21.7387075,30.1560447 21.4018306,30.0459698 21.1065867,29.8541701 L21.1065867,29.8525024 L21.0665591,29.8258173 L21.0632232,29.8241492 C20.7663526,29.6290149 20.5311865,29.3655071 20.361085,29.0369175 C19.8190573,28.1062695 19.5388425,26.5601991 19.0785353,24.0149961 L18.8867356,22.9642865 C18.1312272,18.8297619 17.7859861,16.9432751 20.0542192,16.511617 C20.6296352,16.4032072 21.2933896,16.3414984 21.8638102,16.7150898 C22.6476689,17.2287672 22.8311342,18.1711139 23.234741,20.2375223 C23.3031231,20.5944365 23.381509,20.9930307 23.4699028,21.4283607 C25.3111744,18.1027147 26.0016566,15.222475 25.5129991,12.8507037 C25.0526919,10.6074906 23.5299763,8.66613922 20.8599724,6.91679247 C18.408274,5.30902616 15.7462543,4.86370529 13.1631371,5.6292473 C10.7998197,6.32805522 8.59507574,8.02757556 7.11053053,10.292521 C4.55875229,14.1852146 3.82326837,20.1993093 10.1476359,24.3455326 C11.3134544,25.1094095 11.638671,26.6721313 10.8747941,27.8379498 C10.1109172,29.0021031 8.54653022,29.3289848 7.38237693,28.5634428 C-1.40192944,22.8062936 -1.10348334,13.6232052 2.89244955,7.52704857 C6.98692517,1.28102845 15.6462172,-2.53301883 23.6282629,2.69854071 C27.424207,5.18691516 29.7222847,8.26227631 30.4579394,11.8363712 C31.2268117,15.5789451 30.3078368,19.6719691 27.6510089,24.2951085 C28.1446619,24.1917026 28.5916479,24.0949702 28.9869289,24.0082415 C31.0850605,23.5512646 32.0423509,23.3411142 32.8212568,23.853135 C33.4016683,24.2333954 33.5967897,24.8655034 33.7202243,25.4925818 C34.1622149,27.7341298 32.3125748,28.1660868 28.2581055,29.113429 L28.2580214,29.1136523 Z" id="Shape"></path>
                        </g>
                    </g>
                </g>
            </g>
        </g>
    </g>
</svg>