<?xml version="1.0" encoding="UTF-8"?>
<svg width="21px" height="26px" viewBox="0 0 21 26" version="1.1" xmlns="http://www.w3.org/2000/svg" xmlns:xlink="http://www.w3.org/1999/xlink">
    <!-- Generator: Sketch 51 (57462) - http://www.bohemiancoding.com/sketch -->
    <title>Fill 1</title>
    <desc>Created with Sketch.</desc>
    <defs></defs>
    <g id="Symbols" stroke="none" stroke-width="1" fill="none" fill-rule="evenodd">
        <g id="Share" transform="translate(-17.000000, -14.000000)" fill="#246EB9">
            <g id="Fill-1">
                <path d="M33.7036003,14.0004176 C31.6156693,14.0004176 29.907362,15.7087248 29.907362,17.7966559 C29.907362,18.4076225 30.0630686,18.9918635 30.3225946,19.5049631 L23.6078083,23.9890798 C22.9123374,23.2209489 21.9083843,22.7315759 20.7962383,22.7315759 C18.7083072,22.7315759 17,24.4398831 17,26.5278141 C17,28.6157452 18.7083072,30.3240524 20.7962383,30.3240524 C21.9099028,30.3240524 22.9123374,29.8376784 23.6078083,29.0665485 L30.3225946,33.5388968 C30.057154,34.056438 29.907362,34.6406791 29.907362,35.2590483 C29.907362,37.3469794 31.6156693,39.0552866 33.7036003,39.0552866 C35.7915314,39.0552866 37.4998386,37.3469794 37.4998386,35.2590483 C37.4998386,33.1711173 35.7915314,31.46281 33.7036003,31.46281 C32.7901495,31.46281 31.9522817,31.7979458 31.2953427,32.3406901 L24.3907445,27.7495196 C24.5212402,27.3654541 24.5924196,26.9546632 24.5924196,26.5275864 C24.5924196,26.0975485 24.524205,25.6927176 24.3907445,25.3056532 L31.2714264,20.7027143 C31.9313265,21.2587872 32.7780774,21.5924766 33.7033726,21.5924766 C35.7913036,21.5924766 37.4996109,19.8841694 37.4996109,17.7962383 C37.4996109,15.7083072 35.7913036,14 33.7033726,14 L33.7036003,14.0004176 Z"></path>
            </g>
        </g>
    </g>
</svg>